HIERARCHY
ROOT ETY1
{
	OFFSET 0.000000 0.000000 0.000000
	CHANNELS 6 Xposition Yposition Zposition Xrotation Yrotation Zrotation
	JOINT N_ALL
	{
		OFFSET 0.000000 0.000000 0.000000
		CHANNELS 3 Xrotation Yrotation Zrotation
		JOINT locator2
		{
			OFFSET 0.000000 0.000000 63.674999
			CHANNELS 3 Xrotation Yrotation Zrotation
			JOINT hara
			{
				OFFSET -0.000000 -0.000000 0.472500
				CHANNELS 3 Xrotation Yrotation Zrotation
				JOINT mune
				{
					OFFSET -0.000005 -0.000000 14.647499
					CHANNELS 3 Xrotation Yrotation Zrotation
					JOINT kubi
					{
						OFFSET -0.565367 0.000000 13.797264
						CHANNELS 3 Xrotation Yrotation Zrotation
						JOINT kao
						{
							OFFSET 0.709599 -0.000000 1.686798
							CHANNELS 3 Xrotation Yrotation Zrotation
							JOINT ago
							{
								OFFSET 1.521274 -0.000001 2.195969
								CHANNELS 3 Xrotation Yrotation Zrotation
								End Site
								{
									OFFSET -0.000000 0.000000 0.365990
								}
							}
							JOINT eyebrow
							{
								OFFSET 2.744157 -0.000001 4.250847
								CHANNELS 3 Xrotation Yrotation Zrotation
								End Site
								{
									OFFSET -0.000000 0.000000 0.365990
								}
							}
							JOINT lip
							{
								OFFSET 1.419795 -0.000001 0.927528
								CHANNELS 3 Xrotation Yrotation Zrotation
								End Site
								{
									OFFSET 0.365992 -0.000000 0.000000
								}
							}
						}
					}
					JOINT L_sako
					{
						OFFSET -0.472501 6.525000 10.465401
						CHANNELS 3 Xrotation Yrotation Zrotation
						JOINT L_kata
						{
							OFFSET -0.000001 5.850000 -0.581734
							CHANNELS 3 Xrotation Yrotation Zrotation
							JOINT L_hiji
							{
								OFFSET -0.483016 15.785759 -0.000015
								CHANNELS 3 Xrotation Yrotation Zrotation
								JOINT L_te
								{
									OFFSET 0.611527 17.032738 -0.013641
									CHANNELS 3 Xrotation Yrotation Zrotation
									JOINT LeftHandIndex1
									{
										OFFSET 2.549848 6.470253 0.791817
										CHANNELS 3 Xrotation Yrotation Zrotation
										JOINT LeftHandIndex2
										{
											OFFSET -0.000001 2.289848 0.000000
											CHANNELS 3 Xrotation Yrotation Zrotation
											JOINT LeftHandIndex3
											{
												OFFSET -0.000001 2.268135 0.000000
												CHANNELS 3 Xrotation Yrotation Zrotation
												End Site
												{
													OFFSET 0.000000 0.365993 0.000000
												}
											}
										}
									}
									JOINT LeftHandMiddle1
									{
										OFFSET 0.874708 6.694298 1.118919
										CHANNELS 3 Xrotation Yrotation Zrotation
										JOINT LeftHandMiddle2
										{
											OFFSET -0.000001 2.683815 0.000000
											CHANNELS 3 Xrotation Yrotation Zrotation
											JOINT LeftHandMiddle3
											{
												OFFSET -0.000001 2.217308 0.000000
												CHANNELS 3 Xrotation Yrotation Zrotation
												End Site
												{
													OFFSET -0.000000 0.365993 0.000000
												}
											}
										}
									}
									JOINT LeftHandPinky1
									{
										OFFSET -2.442180 5.931721 0.497902
										CHANNELS 3 Xrotation Yrotation Zrotation
										JOINT LeftHandPinky2
										{
											OFFSET -0.000000 2.137306 0.000000
											CHANNELS 3 Xrotation Yrotation Zrotation
											JOINT LeftHandPinky3
											{
												OFFSET -0.000000 1.836044 0.000000
												CHANNELS 3 Xrotation Yrotation Zrotation
												End Site
												{
													OFFSET 0.000000 0.365993 0.000000
												}
											}
										}
									}
									JOINT LeftHandRing1
									{
										OFFSET -0.853656 6.338440 0.870934
										CHANNELS 3 Xrotation Yrotation Zrotation
										JOINT LeftHandRing2
										{
											OFFSET -0.000001 2.531284 0.000000
											CHANNELS 3 Xrotation Yrotation Zrotation
											JOINT LeftHandRing3
											{
												OFFSET -0.000001 2.217308 0.000000
												CHANNELS 3 Xrotation Yrotation Zrotation
												End Site
												{
													OFFSET -0.000000 0.365993 0.000000
												}
											}
										}
									}
									JOINT LeftHandThumb1
									{
										OFFSET 2.594638 1.377514 -1.567856
										CHANNELS 3 Xrotation Yrotation Zrotation
										JOINT LeftHandThumb2
										{
											OFFSET 1.626614 2.409187 0.000557
											CHANNELS 3 Xrotation Yrotation Zrotation
											JOINT LeftHandThumb3
											{
												OFFSET 0.823900 2.113201 0.000290
												CHANNELS 3 Xrotation Yrotation Zrotation
												End Site
												{
													OFFSET 0.000000 0.365993 0.000000
												}
											}
										}
									}
								}
							}
						}
					}
					JOINT R_sako
					{
						OFFSET -0.472506 -6.525000 10.465546
						CHANNELS 3 Xrotation Yrotation Zrotation
						JOINT R_kata
						{
							OFFSET 0.000002 -5.850000 -0.581696
							CHANNELS 3 Xrotation Yrotation Zrotation
							JOINT R_hiji
							{
								OFFSET -0.483008 -15.785765 -0.000015
								CHANNELS 3 Xrotation Yrotation Zrotation
								JOINT R_te
								{
									OFFSET 0.611537 -17.032732 -0.013748
									CHANNELS 3 Xrotation Yrotation Zrotation
									JOINT RightHandIndex1
									{
										OFFSET 2.550124 -6.470253 0.790878
										CHANNELS 3 Xrotation Yrotation Zrotation
										JOINT RightHandIndex2
										{
											OFFSET 0.000001 -2.289848 0.000000
											CHANNELS 3 Xrotation Yrotation Zrotation
											JOINT RightHandIndex3
											{
												OFFSET 0.000001 -2.268135 0.000000
												CHANNELS 3 Xrotation Yrotation Zrotation
												End Site
												{
													OFFSET 0.000000 -0.365993 0.000000
												}
											}
										}
									}
									JOINT RightHandMiddle1
									{
										OFFSET 0.875098 -6.694302 1.118561
										CHANNELS 3 Xrotation Yrotation Zrotation
										JOINT RightHandMiddle2
										{
											OFFSET 0.000001 -2.683807 0.000000
											CHANNELS 3 Xrotation Yrotation Zrotation
											JOINT RightHandMiddle3
											{
												OFFSET 0.000001 -2.217308 0.000000
												CHANNELS 3 Xrotation Yrotation Zrotation
												End Site
												{
													OFFSET 0.000000 -0.365993 0.000000
												}
											}
										}
									}
									JOINT RightHandPinky1
									{
										OFFSET -2.442005 -5.931721 0.498680
										CHANNELS 3 Xrotation Yrotation Zrotation
										JOINT RightHandPinky2
										{
											OFFSET 0.000000 -2.137306 0.000000
											CHANNELS 3 Xrotation Yrotation Zrotation
											JOINT RightHandPinky3
											{
												OFFSET 0.000000 -1.836044 0.000000
												CHANNELS 3 Xrotation Yrotation Zrotation
												End Site
												{
													OFFSET 0.000000 -0.365993 0.000000
												}
											}
										}
									}
									JOINT RightHandRing1
									{
										OFFSET -0.853352 -6.338440 0.871170
										CHANNELS 3 Xrotation Yrotation Zrotation
										JOINT RightHandRing2
										{
											OFFSET 0.000001 -2.531284 0.000000
											CHANNELS 3 Xrotation Yrotation Zrotation
											JOINT RightHandRing3
											{
												OFFSET 0.000001 -2.217308 0.000000
												CHANNELS 3 Xrotation Yrotation Zrotation
												End Site
												{
													OFFSET 0.000000 -0.365993 0.000000
												}
											}
										}
									}
									JOINT RightHandThumb1
									{
										OFFSET 2.594098 -1.377514 -1.568817
										CHANNELS 3 Xrotation Yrotation Zrotation
										JOINT RightHandThumb2
										{
											OFFSET 1.626616 -2.409184 0.000000
											CHANNELS 3 Xrotation Yrotation Zrotation
											JOINT RightHandThumb3
											{
												OFFSET 0.823900 -2.113201 0.000000
												CHANNELS 3 Xrotation Yrotation Zrotation
												End Site
												{
													OFFSET 0.000000 -0.365993 0.000000
												}
											}
										}
									}
								}
							}
						}
					}
				}
			}
			JOINT koshi
			{
				OFFSET 0.000000 0.000000 0.000000
				CHANNELS 3 Xrotation Yrotation Zrotation
				JOINT L_momo
				{
					OFFSET 0.000005 5.033075 -8.541428
					CHANNELS 3 Xrotation Yrotation Zrotation
					JOINT L_hiza
					{
						OFFSET 0.236263 0.000015 -23.625002
						CHANNELS 3 Xrotation Yrotation Zrotation
						JOINT L_ashi
						{
							OFFSET -0.944986 0.000017 -25.908707
							CHANNELS 3 Xrotation Yrotation Zrotation
							JOINT L_ashi2
							{
								OFFSET 3.767458 0.000001 -3.875652
								CHANNELS 3 Xrotation Yrotation Zrotation
								End Site
								{
									OFFSET 0.365992 0.000000 0.000000
								}
							}
						}
					}
				}
				JOINT R_momo
				{
					OFFSET 0.000001 -5.033065 -8.541435
					CHANNELS 3 Xrotation Yrotation Zrotation
					JOINT R_hiza
					{
						OFFSET 0.236263 0.000015 -23.624998
						CHANNELS 3 Xrotation Yrotation Zrotation
						JOINT R_ashi
						{
							OFFSET -0.944986 0.000017 -25.908707
							CHANNELS 3 Xrotation Yrotation Zrotation
							JOINT R_ashi2
							{
								OFFSET 3.767459 0.000001 -3.875652
								CHANNELS 3 Xrotation Yrotation Zrotation
								End Site
								{
									OFFSET 0.365992 0.000000 0.000000
								}
							}
						}
					}
				}
			}
		}
	}
}
MOTION
Frames: 4
Frame Time: 0.041667
0.000000 0.000000 0.000000 -0.000000 0.000000 -89.999982 -0.000000 0.000000 -0.000000 -0.000000 0.000003 0.000000 -0.143608 -3.516493 -3.767942 -0.233603 2.313021 1.941560 1.352203 -21.439735 0.241790 0.739224 -30.150207 1.523423 0.000005 16.201161 0.000002 0.000000 0.731357 -0.000016 -0.000004 -4.158791 0.000000 -19.625825 15.043070 -2.271167 -58.738725 -23.914920 -59.933086 4.158385 -24.446692 -105.811631 -9.433908 -8.123044 -3.352524 -41.891299 8.323260 -4.204974 -66.182750 0.011824 -0.018122 -96.095058 0.021905 -0.019693 -35.089028 0.003589 -0.011388 -63.105573 0.010827 -0.017670 -95.048079 0.021526 -0.019746 -44.092279 -5.825443 3.866446 -54.908611 0.008402 -0.016197 -102.105830 0.023957 -0.019361 -43.710803 0.005648 2.824781 -64.859504 0.011370 -0.017936 -94.514880 0.021342 -0.019763 -27.967536 13.329287 -6.154207 -0.011517 -0.003695 35.571956 -0.018098 -0.011763 66.057621 19.438759 15.260096 2.260898 52.589339 -15.783421 61.840792 -8.214289 -13.092792 109.941956 14.710713 -10.322763 4.068304 41.894731 8.320830 4.189166 66.185339 0.000007 0.000030 96.095031 0.000047 0.000041 35.089025 0.000019 0.000019 63.105293 0.000040 0.000028 95.048093 0.000064 0.000021 44.087939 -5.828133 -3.882735 54.910158 0.000030 0.000043 102.105843 0.000049 0.000041 43.710649 -0.000274 -2.839913 64.859108 0.000042 0.000027 94.514880 0.000062 0.000020 27.972575 13.335053 6.138154 0.000025 -0.000007 -35.579897 0.000031 -0.000033 -66.061173 -0.344052 -5.971775 -5.455838 13.357157 -3.631008 14.419057 0.018625 25.090294 3.660327 -14.249562 0.135039 6.117465 -0.222763 -14.096800 -1.153743 -14.654972 -1.670056 -0.813380 -0.452314 16.839206 -9.623313 11.365940 8.230170 -1.834610 5.508658 -15.572708 2.056660 
0.000000 0.000000 0.000000 -0.000000 0.000000 -89.999982 -0.000000 0.000000 -0.000000 -0.000000 0.000003 0.000000 -0.220975 -4.921941 -3.785417 -0.196300 0.841470 1.958065 1.376130 -21.363165 0.259382 0.749345 -30.428786 1.529418 0.000005 16.736081 0.000002 0.000000 0.643469 -0.000016 -0.000004 -4.144351 0.000000 -19.625819 15.041236 -2.271168 -59.054130 -25.713203 -61.322278 4.160216 -24.437121 -106.834643 -9.469040 -10.198459 -3.112951 -38.850922 7.999532 -4.670917 -63.344267 0.010935 -0.017707 -96.095052 0.021905 -0.019691 -32.414288 0.003077 -0.010618 -60.070776 0.009907 -0.017170 -95.048079 0.021528 -0.019745 -40.293000 -5.375279 4.255483 -51.666812 0.007503 -0.015520 -102.105830 0.023955 -0.019366 -40.694141 0.005118 3.087000 -62.043936 0.010504 -0.017503 -94.514880 0.021345 -0.019761 -28.597712 14.480214 -7.302443 -0.011125 -0.003424 34.199027 -0.018163 -0.011913 66.522744 19.438758 15.260096 2.260898 53.105527 -17.044329 63.130469 -8.218931 -13.092793 110.960446 14.808236 -12.179056 3.921448 38.856509 7.997781 4.656004 63.342327 0.000007 0.000030 96.095024 0.000046 0.000042 32.414114 0.000017 0.000019 60.071930 0.000036 0.000025 95.048093 0.000064 0.000021 40.288916 -5.376981 -4.270615 51.668243 0.000031 0.000044 102.105843 0.000052 0.000042 40.691610 0.000099 -3.101383 62.044455 0.000037 0.000027 94.514887 0.000063 0.000023 28.602614 14.486211 7.286372 0.000023 -0.000009 -34.208118 0.000033 -0.000033 -66.526924 -0.427566 -6.772636 -5.472639 13.300970 -2.229206 14.559055 0.007996 23.169591 3.588360 -14.283777 1.539562 6.294884 -0.344454 -14.826973 -1.106745 -14.580589 0.030598 -0.804323 -0.444888 14.342870 -9.489473 11.205129 10.480825 -2.048836 5.383370 -16.596665 2.004227 
0.000000 0.000000 0.000000 -0.000000 0.000000 -89.999982 -0.000000 0.000000 -0.000000 -0.000000 0.000003 0.000000 -0.299495 -6.327325 -3.807903 -0.157783 -0.628570 1.953503 1.392254 -21.288134 0.241540 0.759297 -30.695591 1.536896 0.000005 17.271001 0.000002 0.000000 0.554887 -0.000016 -0.000004 -4.129913 0.000000 -19.625819 15.041233 -2.271167 -59.502477 -25.857759 -63.250632 4.162109 -24.429160 -107.820130 -9.712628 -14.848155 -3.247757 -35.818881 7.675637 -5.135646 -60.502792 0.010068 -0.017245 -96.095052 0.021905 -0.019691 -29.739549 0.002602 -0.009823 -57.039036 0.009013 -0.016624 -95.048079 0.021526 -0.019748 -36.496388 -4.924401 4.644602 -48.424959 0.006646 -0.014800 -102.105830 0.023957 -0.019363 -37.674958 0.004358 3.349259 -59.228368 0.009656 -0.017021 -94.514880 0.021342 -0.019762 -29.177315 15.620363 -8.467055 -0.010729 -0.003162 32.827713 -0.018225 -0.012065 66.987879 19.438758 15.260096 2.260898 53.569730 -16.107429 65.212816 -8.222080 -13.092793 111.946555 15.109319 -15.728167 4.158988 35.821914 7.674053 5.122318 60.502342 0.000004 0.000028 96.095031 0.000045 0.000042 29.739207 0.000015 0.000018 57.038643 0.000034 0.000026 95.048093 0.000064 0.000021 36.495193 -4.926166 -4.658159 48.423463 0.000027 0.000044 102.105843 0.000051 0.000042 37.672465 -0.000344 -3.363394 59.226817 0.000035 0.000027 94.514874 0.000065 0.000023 29.184688 15.626158 8.449312 0.000026 -0.000008 -32.836285 0.000029 -0.000034 -66.990400 -0.427709 -7.573544 -5.479531 13.253983 -0.829325 14.702527 -0.003367 21.248829 3.516268 -14.325548 2.941359 6.475066 -0.507420 -15.646753 -1.074287 -14.519345 1.738879 -0.801252 -0.438922 11.842267 -9.354794 11.058289 12.733039 -2.249729 5.255469 -17.518122 1.955695 
0.000000 0.000000 0.000000 -0.000000 0.000000 -89.999982 -0.000000 0.000000 -0.000000 -0.000000 0.000003 0.000000 -0.379604 -7.732565 -3.835529 -0.121798 -1.240937 1.952353 1.411565 -21.211579 0.243013 0.769701 -30.952314 1.544285 0.000006 17.805905 0.000001 0.000000 0.466996 -0.000016 -0.000004 -4.115475 0.000000 -19.625823 15.041234 -2.271167 -59.557187 -27.651980 -64.814745 4.165831 -24.419589 -108.776343 -9.826884 -18.234501 -3.178128 -32.787804 7.351149 -5.601179 -57.664309 0.009227 -0.016739 -96.095052 0.021904 -0.019690 -27.062748 0.002162 -0.009011 -54.004253 0.008149 -0.016029 -95.048079 0.021528 -0.019747 -32.710251 -4.474581 5.033170 -45.183166 0.005831 -0.014034 -102.105830 0.023957 -0.019363 -34.655427 0.003612 3.611766 -56.412793 0.008832 -0.016503 -94.514880 0.021341 -0.019762 -29.710158 16.747422 -9.646468 -0.010331 -0.002909 31.454787 -0.018291 -0.012210 67.453063 19.438758 15.260096 2.260898 53.872540 -17.177883 66.683321 -8.226721 -13.091529 112.896128 15.328085 -18.620771 4.226086 32.793026 7.350321 5.587817 57.662308 0.000003 0.000025 96.095031 0.000045 0.000042 27.062287 0.000014 0.000016 54.005288 0.000033 0.000027 95.048093 0.000064 0.000021 32.706491 -4.475872 -5.045383 45.181551 0.000027 0.000042 102.105843 0.000050 0.000041 34.655400 0.000442 -3.624921 56.412107 0.000034 0.000026 94.514880 0.000064 0.000021 29.716866 16.753103 9.628829 0.000021 -0.000006 -31.462908 0.000031 -0.000032 -67.456157 -0.429429 -7.644346 -5.483213 13.214581 0.568592 14.848094 -0.013824 19.328011 3.442714 -14.377365 4.345695 6.656001 -0.672156 -16.376459 -1.046915 -14.472546 3.447215 -0.800553 -0.433071 9.344931 -9.220016 10.934709 15.131907 -2.482230 5.182100 -18.537958 1.928355 
